# xmcd CD database file
#
# Track frame offsets:
#	150
#	23261
#	58076
#	75453
#	105068
#	128068
#	152149
#	175728
#	211431
#	242664
#	257825
#	280420
#
# Disc length: 4122 seconds
#
# Revision: 0
# Processed by: cddbd v1.5.2PL0 Copyright (c) Steve Scherf et al.
# Submitted via: CDex 1.51
#
DISCID=9210180c
DTITLE=The Dixie Hasslers - Live on the Forth of July
DYEAR=2008
DGENRE=Jazz
TTITLE0=Intro and Indiana
TTITLE1=Five Foot Two
TTITLE2=Sweet Emma
TTITLE3=Ain't She Sweet
TTITLE4=Georgia
TTITLE5=That's A Plenty
TTITLE6=When You're Smiling
TTITLE7=Bourbon Street Parade
TTITLE8=Diana
TTITLE9=Up A Lazy River
TTITLE10=Forth of July Medley
TTITLE11=Saints and Closing
EXTD=YEAR: 2008
EXTT0=
EXTT1=
EXTT2=
EXTT3=
EXTT4=
EXTT5=
EXTT6=
EXTT7=
EXTT8=
EXTT9=
EXTT10=
EXTT11=
PLAYORDER=
